<svg width="20" height="21" viewBox="0 0 20 21" fill="none" xmlns="http://www.w3.org/2000/svg">
<path d="M10 0.5C4.45312 0.5 0 4.99219 0 10.5C0 16.0469 4.45312 20.5 10 20.5C15.5078 20.5 20 16.0469 20 10.5C20 4.99219 15.5078 0.5 10 0.5ZM10 18.625C5.50781 18.625 1.875 14.9922 1.875 10.5C1.875 6.04688 5.50781 2.375 10 2.375C14.4531 2.375 18.125 6.04688 18.125 10.5C18.125 14.9922 14.4531 18.625 10 18.625ZM10 13.625C9.29688 13.625 8.75 14.1719 8.75 14.875C8.75 15.5781 9.25781 16.125 10 16.125C10.6641 16.125 11.25 15.5781 11.25 14.875C11.25 14.1719 10.6641 13.625 10 13.625ZM11.2891 5.5H9.29688C7.77344 5.5 6.5625 6.71094 6.5625 8.23438C6.5625 8.74219 6.99219 9.17188 7.5 9.17188C8.00781 9.17188 8.4375 8.74219 8.4375 8.23438C8.4375 7.76562 8.78906 7.375 9.25781 7.375H11.25C11.7578 7.375 12.1875 7.76562 12.1875 8.23438C12.1875 8.54688 12.0312 8.82031 11.7578 8.97656L9.53125 10.3047C9.21875 10.5 9.0625 10.8125 9.0625 11.125V11.75C9.0625 12.2578 9.49219 12.6875 10 12.6875C10.5078 12.6875 10.9375 12.2578 10.9375 11.75V11.6719L12.6953 10.5781C13.5156 10.0703 14.0234 9.17188 14.0234 8.23438C14.0625 6.71094 12.8516 5.5 11.2891 5.5Z" fill="#62656C"/>
</svg>
